<svg xmlns="http://www.w3.org/2000/svg" width="200" height="132"><rect width="100%" height="100%" x="0" y="0" fill="#4EB678"/><g fill="#222" fill-opacity=".029" stroke="#000" stroke-opacity=".02" stroke-width="1" transform="translate(0.0,-16.666666666666668)"><polyline points="0 0 16.667 11.333 16.667 33.333 0 22 0 0"/><polyline points="16.667 11.333 33.333 0 33.333 22 16.667 33.333 16.667 11.333"/></g><g fill="#222" fill-opacity=".029" stroke="#000" stroke-opacity=".02" stroke-width="1" transform="translate(0.0,115.33333333333333)"><polyline points="0 0 16.667 11.333 16.667 33.333 0 22 0 0"/><polyline points="16.667 11.333 33.333 0 33.333 22 16.667 33.333 16.667 11.333"/></g><g fill="#222" fill-opacity=".046" stroke="#000" stroke-opacity=".02" stroke-width="1" transform="translate(33.333333333333336,-16.666666666666668)"><polyline points="0 0 16.667 11.333 16.667 33.333 0 22 0 0"/><polyline points="16.667 11.333 33.333 0 33.333 22 16.667 33.333 16.667 11.333"/></g><g fill="#222" fill-opacity=".046" stroke="#000" stroke-opacity=".02" stroke-width="1" transform="translate(33.333333333333336,115.33333333333333)"><polyline points="0 0 16.667 11.333 16.667 33.333 0 22 0 0"/><polyline points="16.667 11.333 33.333 0 33.333 22 16.667 33.333 16.667 11.333"/></g><g fill="#ddd" fill-opacity=".055" stroke="#000" stroke-opacity=".02" stroke-width="1" transform="translate(66.66666666666667,-16.666666666666668)"><polyline points="0 0 16.667 11.333 16.667 33.333 0 22 0 0"/><polyline points="16.667 11.333 33.333 0 33.333 22 16.667 33.333 16.667 11.333"/></g><g fill="#ddd" fill-opacity=".055" stroke="#000" stroke-opacity=".02" stroke-width="1" transform="translate(66.66666666666667,115.33333333333333)"><polyline points="0 0 16.667 11.333 16.667 33.333 0 22 0 0"/><polyline points="16.667 11.333 33.333 0 33.333 22 16.667 33.333 16.667 11.333"/></g><g fill="#ddd" fill-opacity=".02" stroke="#000" stroke-opacity=".02" stroke-width="1" transform="translate(100.0,-16.666666666666668)"><polyline points="0 0 16.667 11.333 16.667 33.333 0 22 0 0"/><polyline points="16.667 11.333 33.333 0 33.333 22 16.667 33.333 16.667 11.333"/></g><g fill="#ddd" fill-opacity=".02" stroke="#000" stroke-opacity=".02" stroke-width="1" transform="translate(100.0,115.33333333333333)"><polyline points="0 0 16.667 11.333 16.667 33.333 0 22 0 0"/><polyline points="16.667 11.333 33.333 0 33.333 22 16.667 33.333 16.667 11.333"/></g><g fill="#222" fill-opacity=".115" stroke="#000" stroke-opacity=".02" stroke-width="1" transform="translate(133.33333333333334,-16.666666666666668)"><polyline points="0 0 16.667 11.333 16.667 33.333 0 22 0 0"/><polyline points="16.667 11.333 33.333 0 33.333 22 16.667 33.333 16.667 11.333"/></g><g fill="#222" fill-opacity=".115" stroke="#000" stroke-opacity=".02" stroke-width="1" transform="translate(133.33333333333334,115.33333333333333)"><polyline points="0 0 16.667 11.333 16.667 33.333 0 22 0 0"/><polyline points="16.667 11.333 33.333 0 33.333 22 16.667 33.333 16.667 11.333"/></g><g fill="#222" fill-opacity=".046" stroke="#000" stroke-opacity=".02" stroke-width="1" transform="translate(166.66666666666669,-16.666666666666668)"><polyline points="0 0 16.667 11.333 16.667 33.333 0 22 0 0"/><polyline points="16.667 11.333 33.333 0 33.333 22 16.667 33.333 16.667 11.333"/></g><g fill="#222" fill-opacity=".046" stroke="#000" stroke-opacity=".02" stroke-width="1" transform="translate(166.66666666666669,115.33333333333333)"><polyline points="0 0 16.667 11.333 16.667 33.333 0 22 0 0"/><polyline points="16.667 11.333 33.333 0 33.333 22 16.667 33.333 16.667 11.333"/></g><g fill="#222" fill-opacity=".115" stroke="#000" stroke-opacity=".02" stroke-width="1" transform="translate(0.0,5.333333333333336)"><polyline points="0 0 16.667 11.333 16.667 33.333 0 22 0 0"/><polyline points="16.667 11.333 33.333 0 33.333 22 16.667 33.333 16.667 11.333"/></g><g fill="#ddd" fill-opacity=".141" stroke="#000" stroke-opacity=".02" stroke-width="1" transform="translate(33.333333333333336,5.333333333333336)"><polyline points="0 0 16.667 11.333 16.667 33.333 0 22 0 0"/><polyline points="16.667 11.333 33.333 0 33.333 22 16.667 33.333 16.667 11.333"/></g><g fill="#222" fill-opacity=".029" stroke="#000" stroke-opacity=".02" stroke-width="1" transform="translate(66.66666666666667,5.333333333333336)"><polyline points="0 0 16.667 11.333 16.667 33.333 0 22 0 0"/><polyline points="16.667 11.333 33.333 0 33.333 22 16.667 33.333 16.667 11.333"/></g><g fill="#ddd" fill-opacity=".089" stroke="#000" stroke-opacity=".02" stroke-width="1" transform="translate(100.0,5.333333333333336)"><polyline points="0 0 16.667 11.333 16.667 33.333 0 22 0 0"/><polyline points="16.667 11.333 33.333 0 33.333 22 16.667 33.333 16.667 11.333"/></g><g fill="#222" fill-opacity=".098" stroke="#000" stroke-opacity=".02" stroke-width="1" transform="translate(133.33333333333334,5.333333333333336)"><polyline points="0 0 16.667 11.333 16.667 33.333 0 22 0 0"/><polyline points="16.667 11.333 33.333 0 33.333 22 16.667 33.333 16.667 11.333"/></g><g fill="#ddd" fill-opacity=".124" stroke="#000" stroke-opacity=".02" stroke-width="1" transform="translate(166.66666666666669,5.333333333333336)"><polyline points="0 0 16.667 11.333 16.667 33.333 0 22 0 0"/><polyline points="16.667 11.333 33.333 0 33.333 22 16.667 33.333 16.667 11.333"/></g><g fill="#222" fill-opacity=".081" stroke="#000" stroke-opacity=".02" stroke-width="1" transform="translate(0.0,27.33333333333334)"><polyline points="0 0 16.667 11.333 16.667 33.333 0 22 0 0"/><polyline points="16.667 11.333 33.333 0 33.333 22 16.667 33.333 16.667 11.333"/></g><g fill="#ddd" fill-opacity=".124" stroke="#000" stroke-opacity=".02" stroke-width="1" transform="translate(33.333333333333336,27.33333333333334)"><polyline points="0 0 16.667 11.333 16.667 33.333 0 22 0 0"/><polyline points="16.667 11.333 33.333 0 33.333 22 16.667 33.333 16.667 11.333"/></g><g fill="#222" fill-opacity=".098" stroke="#000" stroke-opacity=".02" stroke-width="1" transform="translate(66.66666666666667,27.33333333333334)"><polyline points="0 0 16.667 11.333 16.667 33.333 0 22 0 0"/><polyline points="16.667 11.333 33.333 0 33.333 22 16.667 33.333 16.667 11.333"/></g><g fill="#222" fill-opacity=".098" stroke="#000" stroke-opacity=".02" stroke-width="1" transform="translate(100.0,27.33333333333334)"><polyline points="0 0 16.667 11.333 16.667 33.333 0 22 0 0"/><polyline points="16.667 11.333 33.333 0 33.333 22 16.667 33.333 16.667 11.333"/></g><g fill="#ddd" fill-opacity=".124" stroke="#000" stroke-opacity=".02" stroke-width="1" transform="translate(133.33333333333334,27.33333333333334)"><polyline points="0 0 16.667 11.333 16.667 33.333 0 22 0 0"/><polyline points="16.667 11.333 33.333 0 33.333 22 16.667 33.333 16.667 11.333"/></g><g fill="#222" fill-opacity=".115" stroke="#000" stroke-opacity=".02" stroke-width="1" transform="translate(166.66666666666669,27.33333333333334)"><polyline points="0 0 16.667 11.333 16.667 33.333 0 22 0 0"/><polyline points="16.667 11.333 33.333 0 33.333 22 16.667 33.333 16.667 11.333"/></g><g fill="#222" fill-opacity=".046" stroke="#000" stroke-opacity=".02" stroke-width="1" transform="translate(0.0,49.33333333333333)"><polyline points="0 0 16.667 11.333 16.667 33.333 0 22 0 0"/><polyline points="16.667 11.333 33.333 0 33.333 22 16.667 33.333 16.667 11.333"/></g><g fill="#222" fill-opacity=".063" stroke="#000" stroke-opacity=".02" stroke-width="1" transform="translate(33.333333333333336,49.33333333333333)"><polyline points="0 0 16.667 11.333 16.667 33.333 0 22 0 0"/><polyline points="16.667 11.333 33.333 0 33.333 22 16.667 33.333 16.667 11.333"/></g><g fill="#222" fill-opacity=".15" stroke="#000" stroke-opacity=".02" stroke-width="1" transform="translate(66.66666666666667,49.33333333333333)"><polyline points="0 0 16.667 11.333 16.667 33.333 0 22 0 0"/><polyline points="16.667 11.333 33.333 0 33.333 22 16.667 33.333 16.667 11.333"/></g><g fill="#222" fill-opacity=".081" stroke="#000" stroke-opacity=".02" stroke-width="1" transform="translate(100.0,49.33333333333333)"><polyline points="0 0 16.667 11.333 16.667 33.333 0 22 0 0"/><polyline points="16.667 11.333 33.333 0 33.333 22 16.667 33.333 16.667 11.333"/></g><g fill="#222" fill-opacity=".029" stroke="#000" stroke-opacity=".02" stroke-width="1" transform="translate(133.33333333333334,49.33333333333333)"><polyline points="0 0 16.667 11.333 16.667 33.333 0 22 0 0"/><polyline points="16.667 11.333 33.333 0 33.333 22 16.667 33.333 16.667 11.333"/></g><g fill="#ddd" fill-opacity=".072" stroke="#000" stroke-opacity=".02" stroke-width="1" transform="translate(166.66666666666669,49.33333333333333)"><polyline points="0 0 16.667 11.333 16.667 33.333 0 22 0 0"/><polyline points="16.667 11.333 33.333 0 33.333 22 16.667 33.333 16.667 11.333"/></g><g fill="#ddd" fill-opacity=".089" stroke="#000" stroke-opacity=".02" stroke-width="1" transform="translate(0.0,71.33333333333334)"><polyline points="0 0 16.667 11.333 16.667 33.333 0 22 0 0"/><polyline points="16.667 11.333 33.333 0 33.333 22 16.667 33.333 16.667 11.333"/></g><g fill="#ddd" fill-opacity=".124" stroke="#000" stroke-opacity=".02" stroke-width="1" transform="translate(33.333333333333336,71.33333333333334)"><polyline points="0 0 16.667 11.333 16.667 33.333 0 22 0 0"/><polyline points="16.667 11.333 33.333 0 33.333 22 16.667 33.333 16.667 11.333"/></g><g fill="#ddd" fill-opacity=".037" stroke="#000" stroke-opacity=".02" stroke-width="1" transform="translate(66.66666666666667,71.33333333333334)"><polyline points="0 0 16.667 11.333 16.667 33.333 0 22 0 0"/><polyline points="16.667 11.333 33.333 0 33.333 22 16.667 33.333 16.667 11.333"/></g><g fill="#222" fill-opacity=".133" stroke="#000" stroke-opacity=".02" stroke-width="1" transform="translate(100.0,71.33333333333334)"><polyline points="0 0 16.667 11.333 16.667 33.333 0 22 0 0"/><polyline points="16.667 11.333 33.333 0 33.333 22 16.667 33.333 16.667 11.333"/></g><g fill="#222" fill-opacity=".063" stroke="#000" stroke-opacity=".02" stroke-width="1" transform="translate(133.33333333333334,71.33333333333334)"><polyline points="0 0 16.667 11.333 16.667 33.333 0 22 0 0"/><polyline points="16.667 11.333 33.333 0 33.333 22 16.667 33.333 16.667 11.333"/></g><g fill="#222" fill-opacity=".15" stroke="#000" stroke-opacity=".02" stroke-width="1" transform="translate(166.66666666666669,71.33333333333334)"><polyline points="0 0 16.667 11.333 16.667 33.333 0 22 0 0"/><polyline points="16.667 11.333 33.333 0 33.333 22 16.667 33.333 16.667 11.333"/></g><g fill="#222" fill-opacity=".098" stroke="#000" stroke-opacity=".02" stroke-width="1" transform="translate(0.0,93.33333333333334)"><polyline points="0 0 16.667 11.333 16.667 33.333 0 22 0 0"/><polyline points="16.667 11.333 33.333 0 33.333 22 16.667 33.333 16.667 11.333"/></g><g fill="#ddd" fill-opacity=".072" stroke="#000" stroke-opacity=".02" stroke-width="1" transform="translate(33.333333333333336,93.33333333333334)"><polyline points="0 0 16.667 11.333 16.667 33.333 0 22 0 0"/><polyline points="16.667 11.333 33.333 0 33.333 22 16.667 33.333 16.667 11.333"/></g><g fill="#222" fill-opacity=".081" stroke="#000" stroke-opacity=".02" stroke-width="1" transform="translate(66.66666666666667,93.33333333333334)"><polyline points="0 0 16.667 11.333 16.667 33.333 0 22 0 0"/><polyline points="16.667 11.333 33.333 0 33.333 22 16.667 33.333 16.667 11.333"/></g><g fill="#222" fill-opacity=".029" stroke="#000" stroke-opacity=".02" stroke-width="1" transform="translate(100.0,93.33333333333334)"><polyline points="0 0 16.667 11.333 16.667 33.333 0 22 0 0"/><polyline points="16.667 11.333 33.333 0 33.333 22 16.667 33.333 16.667 11.333"/></g><g fill="#222" fill-opacity=".063" stroke="#000" stroke-opacity=".02" stroke-width="1" transform="translate(133.33333333333334,93.33333333333334)"><polyline points="0 0 16.667 11.333 16.667 33.333 0 22 0 0"/><polyline points="16.667 11.333 33.333 0 33.333 22 16.667 33.333 16.667 11.333"/></g><g fill="#ddd" fill-opacity=".072" stroke="#000" stroke-opacity=".02" stroke-width="1" transform="translate(166.66666666666669,93.33333333333334)"><polyline points="0 0 16.667 11.333 16.667 33.333 0 22 0 0"/><polyline points="16.667 11.333 33.333 0 33.333 22 16.667 33.333 16.667 11.333"/></g></svg>