<svg xmlns="http://www.w3.org/2000/svg" width="260" height="288"><rect width="100%" height="100%" x="0" y="0" fill="#44BDC0"/><path fill="none" stroke="#ddd" d="M0 44 C 45.5 0, 84.5 0, 130 44 S 214.5 88, 260 44 S 344.5 0, 390.0, 44" transform="translate(-65, -66.0)" style="opacity:.08933333333333333;stroke-width:8px"/><path fill="none" stroke="#ddd" d="M0 44 C 45.5 0, 84.5 0, 130 44 S 214.5 88, 260 44 S 344.5 0, 390.0, 44" transform="translate(-65, 222.0)" style="opacity:.08933333333333333;stroke-width:8px"/><path fill="none" stroke="#222" d="M0 44 C 45.5 0, 84.5 0, 130 44 S 214.5 88, 260 44 S 344.5 0, 390.0, 44" transform="translate(-65, -58.0)" style="opacity:.046;stroke-width:8px"/><path fill="none" stroke="#222" d="M0 44 C 45.5 0, 84.5 0, 130 44 S 214.5 88, 260 44 S 344.5 0, 390.0, 44" transform="translate(-65, 230.0)" style="opacity:.046;stroke-width:8px"/><path fill="none" stroke="#222" d="M0 44 C 45.5 0, 84.5 0, 130 44 S 214.5 88, 260 44 S 344.5 0, 390.0, 44" transform="translate(-65, -50.0)" style="opacity:.046;stroke-width:8px"/><path fill="none" stroke="#222" d="M0 44 C 45.5 0, 84.5 0, 130 44 S 214.5 88, 260 44 S 344.5 0, 390.0, 44" transform="translate(-65, 238.0)" style="opacity:.046;stroke-width:8px"/><path fill="none" stroke="#ddd" d="M0 44 C 45.5 0, 84.5 0, 130 44 S 214.5 88, 260 44 S 344.5 0, 390.0, 44" transform="translate(-65, -42.0)" style="opacity:.05466666666666667;stroke-width:8px"/><path fill="none" stroke="#ddd" d="M0 44 C 45.5 0, 84.5 0, 130 44 S 214.5 88, 260 44 S 344.5 0, 390.0, 44" transform="translate(-65, 246.0)" style="opacity:.05466666666666667;stroke-width:8px"/><path fill="none" stroke="#222" d="M0 44 C 45.5 0, 84.5 0, 130 44 S 214.5 88, 260 44 S 344.5 0, 390.0, 44" transform="translate(-65, -34.0)" style="opacity:.028666666666666667;stroke-width:8px"/><path fill="none" stroke="#222" d="M0 44 C 45.5 0, 84.5 0, 130 44 S 214.5 88, 260 44 S 344.5 0, 390.0, 44" transform="translate(-65, 254.0)" style="opacity:.028666666666666667;stroke-width:8px"/><path fill="none" stroke="#ddd" d="M0 44 C 45.5 0, 84.5 0, 130 44 S 214.5 88, 260 44 S 344.5 0, 390.0, 44" transform="translate(-65, -26.0)" style="opacity:.05466666666666667;stroke-width:8px"/><path fill="none" stroke="#ddd" d="M0 44 C 45.5 0, 84.5 0, 130 44 S 214.5 88, 260 44 S 344.5 0, 390.0, 44" transform="translate(-65, 262.0)" style="opacity:.05466666666666667;stroke-width:8px"/><path fill="none" stroke="#222" d="M0 44 C 45.5 0, 84.5 0, 130 44 S 214.5 88, 260 44 S 344.5 0, 390.0, 44" transform="translate(-65, -18.0)" style="opacity:.098;stroke-width:8px"/><path fill="none" stroke="#222" d="M0 44 C 45.5 0, 84.5 0, 130 44 S 214.5 88, 260 44 S 344.5 0, 390.0, 44" transform="translate(-65, 270.0)" style="opacity:.098;stroke-width:8px"/><path fill="none" stroke="#222" d="M0 44 C 45.5 0, 84.5 0, 130 44 S 214.5 88, 260 44 S 344.5 0, 390.0, 44" transform="translate(-65, -10.0)" style="opacity:.15;stroke-width:8px"/><path fill="none" stroke="#222" d="M0 44 C 45.5 0, 84.5 0, 130 44 S 214.5 88, 260 44 S 344.5 0, 390.0, 44" transform="translate(-65, 278.0)" style="opacity:.15;stroke-width:8px"/><path fill="none" stroke="#ddd" d="M0 44 C 45.5 0, 84.5 0, 130 44 S 214.5 88, 260 44 S 344.5 0, 390.0, 44" transform="translate(-65, -2.0)" style="opacity:.02;stroke-width:8px"/><path fill="none" stroke="#ddd" d="M0 44 C 45.5 0, 84.5 0, 130 44 S 214.5 88, 260 44 S 344.5 0, 390.0, 44" transform="translate(-65, 286.0)" style="opacity:.02;stroke-width:8px"/><path fill="none" stroke="#222" d="M0 44 C 45.5 0, 84.5 0, 130 44 S 214.5 88, 260 44 S 344.5 0, 390.0, 44" transform="translate(-65, 6.0)" style="opacity:.06333333333333334;stroke-width:8px"/><path fill="none" stroke="#222" d="M0 44 C 45.5 0, 84.5 0, 130 44 S 214.5 88, 260 44 S 344.5 0, 390.0, 44" transform="translate(-65, 294.0)" style="opacity:.06333333333333334;stroke-width:8px"/><path fill="none" stroke="#222" d="M0 44 C 45.5 0, 84.5 0, 130 44 S 214.5 88, 260 44 S 344.5 0, 390.0, 44" transform="translate(-65, 14.0)" style="opacity:.046;stroke-width:8px"/><path fill="none" stroke="#222" d="M0 44 C 45.5 0, 84.5 0, 130 44 S 214.5 88, 260 44 S 344.5 0, 390.0, 44" transform="translate(-65, 302.0)" style="opacity:.046;stroke-width:8px"/><path fill="none" stroke="#222" d="M0 44 C 45.5 0, 84.5 0, 130 44 S 214.5 88, 260 44 S 344.5 0, 390.0, 44" transform="translate(-65, 22.0)" style="opacity:.11533333333333334;stroke-width:8px"/><path fill="none" stroke="#222" d="M0 44 C 45.5 0, 84.5 0, 130 44 S 214.5 88, 260 44 S 344.5 0, 390.0, 44" transform="translate(-65, 310.0)" style="opacity:.11533333333333334;stroke-width:8px"/><path fill="none" stroke="#ddd" d="M0 44 C 45.5 0, 84.5 0, 130 44 S 214.5 88, 260 44 S 344.5 0, 390.0, 44" transform="translate(-65, 30.0)" style="opacity:.12400000000000001;stroke-width:8px"/><path fill="none" stroke="#ddd" d="M0 44 C 45.5 0, 84.5 0, 130 44 S 214.5 88, 260 44 S 344.5 0, 390.0, 44" transform="translate(-65, 318.0)" style="opacity:.12400000000000001;stroke-width:8px"/><path fill="none" stroke="#ddd" d="M0 44 C 45.5 0, 84.5 0, 130 44 S 214.5 88, 260 44 S 344.5 0, 390.0, 44" transform="translate(-65, 38.0)" style="opacity:.14133333333333334;stroke-width:8px"/><path fill="none" stroke="#ddd" d="M0 44 C 45.5 0, 84.5 0, 130 44 S 214.5 88, 260 44 S 344.5 0, 390.0, 44" transform="translate(-65, 326.0)" style="opacity:.14133333333333334;stroke-width:8px"/><path fill="none" stroke="#222" d="M0 44 C 45.5 0, 84.5 0, 130 44 S 214.5 88, 260 44 S 344.5 0, 390.0, 44" transform="translate(-65, 46.0)" style="opacity:.08066666666666666;stroke-width:8px"/><path fill="none" stroke="#222" d="M0 44 C 45.5 0, 84.5 0, 130 44 S 214.5 88, 260 44 S 344.5 0, 390.0, 44" transform="translate(-65, 334.0)" style="opacity:.08066666666666666;stroke-width:8px"/><path fill="none" stroke="#222" d="M0 44 C 45.5 0, 84.5 0, 130 44 S 214.5 88, 260 44 S 344.5 0, 390.0, 44" transform="translate(-65, 54.0)" style="opacity:.15;stroke-width:8px"/><path fill="none" stroke="#222" d="M0 44 C 45.5 0, 84.5 0, 130 44 S 214.5 88, 260 44 S 344.5 0, 390.0, 44" transform="translate(-65, 342.0)" style="opacity:.15;stroke-width:8px"/><path fill="none" stroke="#222" d="M0 44 C 45.5 0, 84.5 0, 130 44 S 214.5 88, 260 44 S 344.5 0, 390.0, 44" transform="translate(-65, 62.0)" style="opacity:.046;stroke-width:8px"/><path fill="none" stroke="#222" d="M0 44 C 45.5 0, 84.5 0, 130 44 S 214.5 88, 260 44 S 344.5 0, 390.0, 44" transform="translate(-65, 350.0)" style="opacity:.046;stroke-width:8px"/><path fill="none" stroke="#222" d="M0 44 C 45.5 0, 84.5 0, 130 44 S 214.5 88, 260 44 S 344.5 0, 390.0, 44" transform="translate(-65, 70.0)" style="opacity:.046;stroke-width:8px"/><path fill="none" stroke="#222" d="M0 44 C 45.5 0, 84.5 0, 130 44 S 214.5 88, 260 44 S 344.5 0, 390.0, 44" transform="translate(-65, 358.0)" style="opacity:.046;stroke-width:8px"/><path fill="none" stroke="#222" d="M0 44 C 45.5 0, 84.5 0, 130 44 S 214.5 88, 260 44 S 344.5 0, 390.0, 44" transform="translate(-65, 78.0)" style="opacity:.06333333333333334;stroke-width:8px"/><path fill="none" stroke="#222" d="M0 44 C 45.5 0, 84.5 0, 130 44 S 214.5 88, 260 44 S 344.5 0, 390.0, 44" transform="translate(-65, 366.0)" style="opacity:.06333333333333334;stroke-width:8px"/><path fill="none" stroke="#222" d="M0 44 C 45.5 0, 84.5 0, 130 44 S 214.5 88, 260 44 S 344.5 0, 390.0, 44" transform="translate(-65, 86.0)" style="opacity:.11533333333333334;stroke-width:8px"/><path fill="none" stroke="#222" d="M0 44 C 45.5 0, 84.5 0, 130 44 S 214.5 88, 260 44 S 344.5 0, 390.0, 44" transform="translate(-65, 374.0)" style="opacity:.11533333333333334;stroke-width:8px"/><path fill="none" stroke="#ddd" d="M0 44 C 45.5 0, 84.5 0, 130 44 S 214.5 88, 260 44 S 344.5 0, 390.0, 44" transform="translate(-65, 94.0)" style="opacity:.05466666666666667;stroke-width:8px"/><path fill="none" stroke="#ddd" d="M0 44 C 45.5 0, 84.5 0, 130 44 S 214.5 88, 260 44 S 344.5 0, 390.0, 44" transform="translate(-65, 382.0)" style="opacity:.05466666666666667;stroke-width:8px"/><path fill="none" stroke="#222" d="M0 44 C 45.5 0, 84.5 0, 130 44 S 214.5 88, 260 44 S 344.5 0, 390.0, 44" transform="translate(-65, 102.0)" style="opacity:.028666666666666667;stroke-width:8px"/><path fill="none" stroke="#222" d="M0 44 C 45.5 0, 84.5 0, 130 44 S 214.5 88, 260 44 S 344.5 0, 390.0, 44" transform="translate(-65, 390.0)" style="opacity:.028666666666666667;stroke-width:8px"/><path fill="none" stroke="#ddd" d="M0 44 C 45.5 0, 84.5 0, 130 44 S 214.5 88, 260 44 S 344.5 0, 390.0, 44" transform="translate(-65, 110.0)" style="opacity:.07200000000000001;stroke-width:8px"/><path fill="none" stroke="#ddd" d="M0 44 C 45.5 0, 84.5 0, 130 44 S 214.5 88, 260 44 S 344.5 0, 390.0, 44" transform="translate(-65, 398.0)" style="opacity:.07200000000000001;stroke-width:8px"/><path fill="none" stroke="#ddd" d="M0 44 C 45.5 0, 84.5 0, 130 44 S 214.5 88, 260 44 S 344.5 0, 390.0, 44" transform="translate(-65, 118.0)" style="opacity:.03733333333333333;stroke-width:8px"/><path fill="none" stroke="#ddd" d="M0 44 C 45.5 0, 84.5 0, 130 44 S 214.5 88, 260 44 S 344.5 0, 390.0, 44" transform="translate(-65, 406.0)" style="opacity:.03733333333333333;stroke-width:8px"/><path fill="none" stroke="#ddd" d="M0 44 C 45.5 0, 84.5 0, 130 44 S 214.5 88, 260 44 S 344.5 0, 390.0, 44" transform="translate(-65, 126.0)" style="opacity:.02;stroke-width:8px"/><path fill="none" stroke="#ddd" d="M0 44 C 45.5 0, 84.5 0, 130 44 S 214.5 88, 260 44 S 344.5 0, 390.0, 44" transform="translate(-65, 414.0)" style="opacity:.02;stroke-width:8px"/><path fill="none" stroke="#ddd" d="M0 44 C 45.5 0, 84.5 0, 130 44 S 214.5 88, 260 44 S 344.5 0, 390.0, 44" transform="translate(-65, 134.0)" style="opacity:.07200000000000001;stroke-width:8px"/><path fill="none" stroke="#ddd" d="M0 44 C 45.5 0, 84.5 0, 130 44 S 214.5 88, 260 44 S 344.5 0, 390.0, 44" transform="translate(-65, 422.0)" style="opacity:.07200000000000001;stroke-width:8px"/><path fill="none" stroke="#222" d="M0 44 C 45.5 0, 84.5 0, 130 44 S 214.5 88, 260 44 S 344.5 0, 390.0, 44" transform="translate(-65, 142.0)" style="opacity:.13266666666666665;stroke-width:8px"/><path fill="none" stroke="#222" d="M0 44 C 45.5 0, 84.5 0, 130 44 S 214.5 88, 260 44 S 344.5 0, 390.0, 44" transform="translate(-65, 430.0)" style="opacity:.13266666666666665;stroke-width:8px"/><path fill="none" stroke="#222" d="M0 44 C 45.5 0, 84.5 0, 130 44 S 214.5 88, 260 44 S 344.5 0, 390.0, 44" transform="translate(-65, 150.0)" style="opacity:.11533333333333334;stroke-width:8px"/><path fill="none" stroke="#222" d="M0 44 C 45.5 0, 84.5 0, 130 44 S 214.5 88, 260 44 S 344.5 0, 390.0, 44" transform="translate(-65, 438.0)" style="opacity:.11533333333333334;stroke-width:8px"/><path fill="none" stroke="#222" d="M0 44 C 45.5 0, 84.5 0, 130 44 S 214.5 88, 260 44 S 344.5 0, 390.0, 44" transform="translate(-65, 158.0)" style="opacity:.046;stroke-width:8px"/><path fill="none" stroke="#222" d="M0 44 C 45.5 0, 84.5 0, 130 44 S 214.5 88, 260 44 S 344.5 0, 390.0, 44" transform="translate(-65, 446.0)" style="opacity:.046;stroke-width:8px"/><path fill="none" stroke="#ddd" d="M0 44 C 45.5 0, 84.5 0, 130 44 S 214.5 88, 260 44 S 344.5 0, 390.0, 44" transform="translate(-65, 166.0)" style="opacity:.14133333333333334;stroke-width:8px"/><path fill="none" stroke="#ddd" d="M0 44 C 45.5 0, 84.5 0, 130 44 S 214.5 88, 260 44 S 344.5 0, 390.0, 44" transform="translate(-65, 454.0)" style="opacity:.14133333333333334;stroke-width:8px"/><path fill="none" stroke="#ddd" d="M0 44 C 45.5 0, 84.5 0, 130 44 S 214.5 88, 260 44 S 344.5 0, 390.0, 44" transform="translate(-65, 174.0)" style="opacity:.14133333333333334;stroke-width:8px"/><path fill="none" stroke="#ddd" d="M0 44 C 45.5 0, 84.5 0, 130 44 S 214.5 88, 260 44 S 344.5 0, 390.0, 44" transform="translate(-65, 462.0)" style="opacity:.14133333333333334;stroke-width:8px"/><path fill="none" stroke="#222" d="M0 44 C 45.5 0, 84.5 0, 130 44 S 214.5 88, 260 44 S 344.5 0, 390.0, 44" transform="translate(-65, 182.0)" style="opacity:.11533333333333334;stroke-width:8px"/><path fill="none" stroke="#222" d="M0 44 C 45.5 0, 84.5 0, 130 44 S 214.5 88, 260 44 S 344.5 0, 390.0, 44" transform="translate(-65, 470.0)" style="opacity:.11533333333333334;stroke-width:8px"/><path fill="none" stroke="#ddd" d="M0 44 C 45.5 0, 84.5 0, 130 44 S 214.5 88, 260 44 S 344.5 0, 390.0, 44" transform="translate(-65, 190.0)" style="opacity:.14133333333333334;stroke-width:8px"/><path fill="none" stroke="#ddd" d="M0 44 C 45.5 0, 84.5 0, 130 44 S 214.5 88, 260 44 S 344.5 0, 390.0, 44" transform="translate(-65, 478.0)" style="opacity:.14133333333333334;stroke-width:8px"/><path fill="none" stroke="#222" d="M0 44 C 45.5 0, 84.5 0, 130 44 S 214.5 88, 260 44 S 344.5 0, 390.0, 44" transform="translate(-65, 198.0)" style="opacity:.028666666666666667;stroke-width:8px"/><path fill="none" stroke="#222" d="M0 44 C 45.5 0, 84.5 0, 130 44 S 214.5 88, 260 44 S 344.5 0, 390.0, 44" transform="translate(-65, 486.0)" style="opacity:.028666666666666667;stroke-width:8px"/><path fill="none" stroke="#ddd" d="M0 44 C 45.5 0, 84.5 0, 130 44 S 214.5 88, 260 44 S 344.5 0, 390.0, 44" transform="translate(-65, 206.0)" style="opacity:.14133333333333334;stroke-width:8px"/><path fill="none" stroke="#ddd" d="M0 44 C 45.5 0, 84.5 0, 130 44 S 214.5 88, 260 44 S 344.5 0, 390.0, 44" transform="translate(-65, 494.0)" style="opacity:.14133333333333334;stroke-width:8px"/><path fill="none" stroke="#ddd" d="M0 44 C 45.5 0, 84.5 0, 130 44 S 214.5 88, 260 44 S 344.5 0, 390.0, 44" transform="translate(-65, 214.0)" style="opacity:.02;stroke-width:8px"/><path fill="none" stroke="#ddd" d="M0 44 C 45.5 0, 84.5 0, 130 44 S 214.5 88, 260 44 S 344.5 0, 390.0, 44" transform="translate(-65, 502.0)" style="opacity:.02;stroke-width:8px"/></svg>