<svg xmlns="http://www.w3.org/2000/svg" width="264" height="264"><rect width="100%" height="100%" x="0" y="0" fill="#D6952E"/><g fill="#ddd" stroke="#000" stroke-opacity=".02" transform="translate(-22.0,-33.0)" style="fill-opacity:.12400000000000001"><rect width="22" height="66" x="22" y="0"/><rect width="66" height="22" x="0" y="22"/></g><g fill="#ddd" stroke="#000" stroke-opacity=".02" transform="translate(242.0,-33.0)" style="fill-opacity:.12400000000000001"><rect width="22" height="66" x="22" y="0"/><rect width="66" height="22" x="0" y="22"/></g><g fill="#ddd" stroke="#000" stroke-opacity=".02" transform="translate(-22.0,231.0)" style="fill-opacity:.12400000000000001"><rect width="22" height="66" x="22" y="0"/><rect width="66" height="22" x="0" y="22"/></g><g fill="#ddd" stroke="#000" stroke-opacity=".02" transform="translate(242.0,231.0)" style="fill-opacity:.12400000000000001"><rect width="22" height="66" x="22" y="0"/><rect width="66" height="22" x="0" y="22"/></g><g fill="#222" stroke="#000" stroke-opacity=".02" transform="translate(22.0,-33.0)" style="fill-opacity:.06333333333333334"><rect width="22" height="66" x="22" y="0"/><rect width="66" height="22" x="0" y="22"/></g><g fill="#222" stroke="#000" stroke-opacity=".02" transform="translate(22.0,231.0)" style="fill-opacity:.06333333333333334"><rect width="22" height="66" x="22" y="0"/><rect width="66" height="22" x="0" y="22"/></g><g fill="#222" stroke="#000" stroke-opacity=".02" transform="translate(66.0,-33.0)" style="fill-opacity:.028666666666666667"><rect width="22" height="66" x="22" y="0"/><rect width="66" height="22" x="0" y="22"/></g><g fill="#222" stroke="#000" stroke-opacity=".02" transform="translate(66.0,231.0)" style="fill-opacity:.028666666666666667"><rect width="22" height="66" x="22" y="0"/><rect width="66" height="22" x="0" y="22"/></g><g fill="#222" stroke="#000" stroke-opacity=".02" transform="translate(110.0,-33.0)" style="fill-opacity:.11533333333333334"><rect width="22" height="66" x="22" y="0"/><rect width="66" height="22" x="0" y="22"/></g><g fill="#222" stroke="#000" stroke-opacity=".02" transform="translate(110.0,231.0)" style="fill-opacity:.11533333333333334"><rect width="22" height="66" x="22" y="0"/><rect width="66" height="22" x="0" y="22"/></g><g fill="#222" stroke="#000" stroke-opacity=".02" transform="translate(154.0,-33.0)" style="fill-opacity:.11533333333333334"><rect width="22" height="66" x="22" y="0"/><rect width="66" height="22" x="0" y="22"/></g><g fill="#222" stroke="#000" stroke-opacity=".02" transform="translate(154.0,231.0)" style="fill-opacity:.11533333333333334"><rect width="22" height="66" x="22" y="0"/><rect width="66" height="22" x="0" y="22"/></g><g fill="#222" stroke="#000" stroke-opacity=".02" transform="translate(198.0,-33.0)" style="fill-opacity:.046"><rect width="22" height="66" x="22" y="0"/><rect width="66" height="22" x="0" y="22"/></g><g fill="#222" stroke="#000" stroke-opacity=".02" transform="translate(198.0,231.0)" style="fill-opacity:.046"><rect width="22" height="66" x="22" y="0"/><rect width="66" height="22" x="0" y="22"/></g><g fill="#222" stroke="#000" stroke-opacity=".02" transform="translate(0.0,11.0)" style="fill-opacity:.08066666666666666"><rect width="22" height="66" x="22" y="0"/><rect width="66" height="22" x="0" y="22"/></g><g fill="#222" stroke="#000" stroke-opacity=".02" transform="translate(264.0,11.0)" style="fill-opacity:.08066666666666666"><rect width="22" height="66" x="22" y="0"/><rect width="66" height="22" x="0" y="22"/></g><g fill="#222" stroke="#000" stroke-opacity=".02" transform="translate(44.0,11.0)" style="fill-opacity:.08066666666666666"><rect width="22" height="66" x="22" y="0"/><rect width="66" height="22" x="0" y="22"/></g><g fill="#222" stroke="#000" stroke-opacity=".02" transform="translate(88.0,11.0)" style="fill-opacity:.08066666666666666"><rect width="22" height="66" x="22" y="0"/><rect width="66" height="22" x="0" y="22"/></g><g fill="#ddd" stroke="#000" stroke-opacity=".02" transform="translate(132.0,11.0)" style="fill-opacity:.12400000000000001"><rect width="22" height="66" x="22" y="0"/><rect width="66" height="22" x="0" y="22"/></g><g fill="#ddd" stroke="#000" stroke-opacity=".02" transform="translate(176.0,11.0)" style="fill-opacity:.10666666666666667"><rect width="22" height="66" x="22" y="0"/><rect width="66" height="22" x="0" y="22"/></g><g fill="#222" stroke="#000" stroke-opacity=".02" transform="translate(220.0,11.0)" style="fill-opacity:.06333333333333334"><rect width="22" height="66" x="22" y="0"/><rect width="66" height="22" x="0" y="22"/></g><g fill="#ddd" stroke="#000" stroke-opacity=".02" transform="translate(-22.0,55.0)" style="fill-opacity:.14133333333333334"><rect width="22" height="66" x="22" y="0"/><rect width="66" height="22" x="0" y="22"/></g><g fill="#ddd" stroke="#000" stroke-opacity=".02" transform="translate(242.0,55.0)" style="fill-opacity:.14133333333333334"><rect width="22" height="66" x="22" y="0"/><rect width="66" height="22" x="0" y="22"/></g><g fill="#ddd" stroke="#000" stroke-opacity=".02" transform="translate(22.0,55.0)" style="fill-opacity:.14133333333333334"><rect width="22" height="66" x="22" y="0"/><rect width="66" height="22" x="0" y="22"/></g><g fill="#ddd" stroke="#000" stroke-opacity=".02" transform="translate(66.0,55.0)" style="fill-opacity:.14133333333333334"><rect width="22" height="66" x="22" y="0"/><rect width="66" height="22" x="0" y="22"/></g><g fill="#ddd" stroke="#000" stroke-opacity=".02" transform="translate(110.0,55.0)" style="fill-opacity:.07200000000000001"><rect width="22" height="66" x="22" y="0"/><rect width="66" height="22" x="0" y="22"/></g><g fill="#222" stroke="#000" stroke-opacity=".02" transform="translate(154.0,55.0)" style="fill-opacity:.06333333333333334"><rect width="22" height="66" x="22" y="0"/><rect width="66" height="22" x="0" y="22"/></g><g fill="#ddd" stroke="#000" stroke-opacity=".02" transform="translate(198.0,55.0)" style="fill-opacity:.14133333333333334"><rect width="22" height="66" x="22" y="0"/><rect width="66" height="22" x="0" y="22"/></g><g fill="#222" stroke="#000" stroke-opacity=".02" transform="translate(0.0,99.0)" style="fill-opacity:.15"><rect width="22" height="66" x="22" y="0"/><rect width="66" height="22" x="0" y="22"/></g><g fill="#222" stroke="#000" stroke-opacity=".02" transform="translate(264.0,99.0)" style="fill-opacity:.15"><rect width="22" height="66" x="22" y="0"/><rect width="66" height="22" x="0" y="22"/></g><g fill="#ddd" stroke="#000" stroke-opacity=".02" transform="translate(44.0,99.0)" style="fill-opacity:.08933333333333333"><rect width="22" height="66" x="22" y="0"/><rect width="66" height="22" x="0" y="22"/></g><g fill="#ddd" stroke="#000" stroke-opacity=".02" transform="translate(88.0,99.0)" style="fill-opacity:.03733333333333333"><rect width="22" height="66" x="22" y="0"/><rect width="66" height="22" x="0" y="22"/></g><g fill="#ddd" stroke="#000" stroke-opacity=".02" transform="translate(132.0,99.0)" style="fill-opacity:.12400000000000001"><rect width="22" height="66" x="22" y="0"/><rect width="66" height="22" x="0" y="22"/></g><g fill="#222" stroke="#000" stroke-opacity=".02" transform="translate(176.0,99.0)" style="fill-opacity:.06333333333333334"><rect width="22" height="66" x="22" y="0"/><rect width="66" height="22" x="0" y="22"/></g><g fill="#222" stroke="#000" stroke-opacity=".02" transform="translate(220.0,99.0)" style="fill-opacity:.098"><rect width="22" height="66" x="22" y="0"/><rect width="66" height="22" x="0" y="22"/></g><g fill="#222" stroke="#000" stroke-opacity=".02" transform="translate(-22.0,143.0)" style="fill-opacity:.06333333333333334"><rect width="22" height="66" x="22" y="0"/><rect width="66" height="22" x="0" y="22"/></g><g fill="#222" stroke="#000" stroke-opacity=".02" transform="translate(242.0,143.0)" style="fill-opacity:.06333333333333334"><rect width="22" height="66" x="22" y="0"/><rect width="66" height="22" x="0" y="22"/></g><g fill="#ddd" stroke="#000" stroke-opacity=".02" transform="translate(22.0,143.0)" style="fill-opacity:.10666666666666667"><rect width="22" height="66" x="22" y="0"/><rect width="66" height="22" x="0" y="22"/></g><g fill="#ddd" stroke="#000" stroke-opacity=".02" transform="translate(66.0,143.0)" style="fill-opacity:.08933333333333333"><rect width="22" height="66" x="22" y="0"/><rect width="66" height="22" x="0" y="22"/></g><g fill="#222" stroke="#000" stroke-opacity=".02" transform="translate(110.0,143.0)" style="fill-opacity:.11533333333333334"><rect width="22" height="66" x="22" y="0"/><rect width="66" height="22" x="0" y="22"/></g><g fill="#ddd" stroke="#000" stroke-opacity=".02" transform="translate(154.0,143.0)" style="fill-opacity:.03733333333333333"><rect width="22" height="66" x="22" y="0"/><rect width="66" height="22" x="0" y="22"/></g><g fill="#ddd" stroke="#000" stroke-opacity=".02" transform="translate(198.0,143.0)" style="fill-opacity:.03733333333333333"><rect width="22" height="66" x="22" y="0"/><rect width="66" height="22" x="0" y="22"/></g><g fill="#ddd" stroke="#000" stroke-opacity=".02" transform="translate(0.0,187.0)" style="fill-opacity:.14133333333333334"><rect width="22" height="66" x="22" y="0"/><rect width="66" height="22" x="0" y="22"/></g><g fill="#ddd" stroke="#000" stroke-opacity=".02" transform="translate(264.0,187.0)" style="fill-opacity:.14133333333333334"><rect width="22" height="66" x="22" y="0"/><rect width="66" height="22" x="0" y="22"/></g><g fill="#ddd" stroke="#000" stroke-opacity=".02" transform="translate(44.0,187.0)" style="fill-opacity:.07200000000000001"><rect width="22" height="66" x="22" y="0"/><rect width="66" height="22" x="0" y="22"/></g><g fill="#ddd" stroke="#000" stroke-opacity=".02" transform="translate(88.0,187.0)" style="fill-opacity:.05466666666666667"><rect width="22" height="66" x="22" y="0"/><rect width="66" height="22" x="0" y="22"/></g><g fill="#ddd" stroke="#000" stroke-opacity=".02" transform="translate(132.0,187.0)" style="fill-opacity:.12400000000000001"><rect width="22" height="66" x="22" y="0"/><rect width="66" height="22" x="0" y="22"/></g><g fill="#ddd" stroke="#000" stroke-opacity=".02" transform="translate(176.0,187.0)" style="fill-opacity:.03733333333333333"><rect width="22" height="66" x="22" y="0"/><rect width="66" height="22" x="0" y="22"/></g><g fill="#ddd" stroke="#000" stroke-opacity=".02" transform="translate(220.0,187.0)" style="fill-opacity:.03733333333333333"><rect width="22" height="66" x="22" y="0"/><rect width="66" height="22" x="0" y="22"/></g></svg>